<svg width="24" height="24" viewBox="0 0 24 24" fill="none" xmlns="http://www.w3.org/2000/svg">
    <path d="M8.02742 18.9694C8.02742 19.0662 7.91613 19.1436 7.77581 19.1436C7.61613 19.1581 7.50484 19.0807 7.50484 18.9694C7.50484 18.8726 7.61613 18.7952 7.75645 18.7952C7.90161 18.7807 8.02742 18.8581 8.02742 18.9694ZM6.52258 18.7516C6.48871 18.8484 6.58548 18.9597 6.73065 18.9887C6.85645 19.0371 7.00161 18.9887 7.03064 18.892C7.05968 18.7952 6.96774 18.6839 6.82258 18.6403C6.69677 18.6065 6.55645 18.6549 6.52258 18.7516ZM8.66129 18.6694C8.52097 18.7032 8.42419 18.7952 8.43871 18.9065C8.45323 19.0032 8.57903 19.0662 8.72419 19.0323C8.86452 18.9984 8.96129 18.9065 8.94677 18.8097C8.93226 18.7178 8.80161 18.6549 8.66129 18.6694ZM11.8452 0.127441C5.13387 0.127441 0 5.2226 0 11.9339C0 17.3 3.37742 21.892 8.20161 23.5081C8.82097 23.6194 9.03871 23.2371 9.03871 22.9226C9.03871 22.6226 9.02419 20.9678 9.02419 19.9516C9.02419 19.9516 5.6371 20.6774 4.92581 18.5097C4.92581 18.5097 4.37419 17.1016 3.58065 16.7387C3.58065 16.7387 2.47258 15.9791 3.65806 15.9936C3.65806 15.9936 4.8629 16.0903 5.52581 17.242C6.58548 19.1097 8.36129 18.5726 9.05323 18.2532C9.16452 17.4791 9.47903 16.942 9.82742 16.6226C7.12258 16.3226 4.39355 15.9307 4.39355 11.2758C4.39355 9.94518 4.76129 9.27744 5.53548 8.42583C5.40968 8.11131 4.99839 6.81454 5.66129 5.14034C6.67258 4.82583 9 6.4468 9 6.4468C9.96774 6.17583 11.0081 6.03551 12.0387 6.03551C13.0694 6.03551 14.1097 6.17583 15.0774 6.4468C15.0774 6.4468 17.4048 4.82099 18.4161 5.14034C19.079 6.81938 18.6677 8.11131 18.5419 8.42583C19.3161 9.28228 19.7903 9.95002 19.7903 11.2758C19.7903 15.9452 16.9403 16.3178 14.2355 16.6226C14.6806 17.0049 15.0581 17.7307 15.0581 18.8678C15.0581 20.4984 15.0435 22.5161 15.0435 22.9129C15.0435 23.2274 15.2661 23.6097 15.8806 23.4984C20.7194 21.892 24 17.3 24 11.9339C24 5.2226 18.5565 0.127441 11.8452 0.127441ZM4.70323 16.8162C4.64032 16.8645 4.65484 16.9758 4.7371 17.0678C4.81452 17.1452 4.92581 17.1791 4.98871 17.1162C5.05161 17.0678 5.0371 16.9565 4.95484 16.8645C4.87742 16.7871 4.76613 16.7532 4.70323 16.8162ZM4.18064 16.4242C4.14677 16.4871 4.19516 16.5645 4.29194 16.6129C4.36935 16.6613 4.46613 16.6468 4.5 16.5791C4.53387 16.5162 4.48548 16.4387 4.38871 16.3903C4.29194 16.3613 4.21452 16.3758 4.18064 16.4242ZM5.74839 18.1468C5.67097 18.2097 5.7 18.3549 5.81129 18.4468C5.92258 18.5581 6.0629 18.5726 6.12581 18.4952C6.18871 18.4323 6.15968 18.2871 6.0629 18.1952C5.95645 18.0839 5.81129 18.0694 5.74839 18.1468ZM5.19677 17.4355C5.11935 17.4839 5.11935 17.6097 5.19677 17.721C5.27419 17.8323 5.40484 17.8807 5.46774 17.8323C5.54516 17.7694 5.54516 17.6436 5.46774 17.5323C5.4 17.421 5.27419 17.3726 5.19677 17.4355Z" fill="#F2F2F2"/>
  </svg>
