<svg width="24" height="25" viewBox="0 0 24 25" fill="none" xmlns="http://www.w3.org/2000/svg">
    <path d="M5.37214 24.5273H0.396429V8.50408H5.37214V24.5273ZM2.88161 6.31837C1.29054 6.31837 0 5.00051 0 3.40944C1.13882e-08 2.64519 0.303597 1.91224 0.844003 1.37184C1.38441 0.831429 2.11736 0.527832 2.88161 0.527832C3.64586 0.527832 4.3788 0.831429 4.91921 1.37184C5.45962 1.91224 5.76321 2.64519 5.76321 3.40944C5.76321 5.00051 4.47214 6.31837 2.88161 6.31837ZM23.9946 24.5273H19.0296V16.7273C19.0296 14.8684 18.9921 12.4844 16.4427 12.4844C13.8557 12.4844 13.4593 14.5041 13.4593 16.5934V24.5273H8.48893V8.50408H13.2611V10.6898H13.3307C13.995 9.43087 15.6177 8.1023 18.0386 8.1023C23.0743 8.1023 24 11.4184 24 15.7255V24.5273H23.9946Z" fill="#F2F2F2"/>
  </svg>
